<svg width="29" height="38" viewBox="0 0 29 38" fill="none" xmlns="http://www.w3.org/2000/svg">
<path d="M27.9135 27.7213L22.0189 21.0937H24.2789C24.9437 21.0937 25.5318 20.7274 25.8121 20.1371C26.0925 19.5483 26.0003 18.873 25.5701 18.3756L19.8053 11.7187H21.937C22.6084 11.7187 23.2135 11.3268 23.4761 10.7218C23.7358 10.1264 23.6134 9.4335 23.1633 8.95816L15.027 0.353668C14.5821 -0.118744 13.752 -0.118744 13.3064 0.353668L5.16939 8.95816C4.71931 9.4335 4.59756 10.1264 4.85655 10.7218C5.11922 11.3268 5.72499 11.7187 6.39644 11.7187H8.52808L2.76254 18.3771C2.33385 18.8737 2.24162 19.5483 2.52126 20.1379C2.80164 20.7275 3.38897 21.0937 4.05451 21.0937H6.31453L0.419873 27.7213C-0.0228355 28.2187 -0.123183 28.8998 0.157199 29.4982C0.433892 30.0878 1.04262 30.4687 1.70742 30.4687H11.8056V32.2594L9.57065 35.8044C9.17812 36.5837 9.74921 37.5006 10.6265 37.5006H17.7069C18.5842 37.5006 19.1553 36.5837 18.7628 35.8044L16.5278 32.2594V30.4687H26.626C27.2908 30.4687 27.8995 30.0878 28.1762 29.4982C28.4566 28.8998 28.3562 28.2187 27.9135 27.7213Z" fill="white"/>
</svg>
